PathFileType  4	(X/Y/Z) C:\Users\antoi\Documents\MyRepositories\mobilecap\ResultsAnalysis
DataRate	CameraRate	NumFrames	NumMarkers	Units	OrigDataRate	OrigDataStartFrame	OrigNumFrames
100.0	100.0	7	51	mm	100.0	54	143
Frame#	Time	r_knee			r_shank_antsup			r_ankle			r_calc			r_5meta			r_toe			L_knee			L_shank_antsup			L_ankle			L_calc			L_5meta			L_toe			r_sh2			r_sh3			r_sh4			L_sh2			L_sh3			r_thigh1			r_thigh2			r_thigh3			r_thigh4			r_thigh5			L_thigh1			L_thigh2			L_thigh3			L_thigh4			r.ASIS			r.PSIS			L.ASIS			L.PSIS			C7			R_Shoulder			L_Shoulder			R_Sternum			L_Sternum			R_humerus			R_elbow_med			R_elbow_lat			R_forearm			R_wrist_radius			R_wrist_ulna			L_humerus			L_elbow_med			L_elbow_lat			L_forearm			L_wrist_radius			L_wrist_ulna			R_HJC			L_HJC			R_HJC_reg			L_HJC_reg			
		X1	Y1	Z1	X2	Y2	Z2	X3	Y3	Z3	X4	Y4	Z4	X5	Y5	Z5	X6	Y6	Z6	X7	Y7	Z7	X8	Y8	Z8	X9	Y9	Z9	X10	Y10	Z10	X11	Y11	Z11	X12	Y12	Z12	X13	Y13	Z13	X14	Y14	Z14	X15	Y15	Z15	X16	Y16	Z16	X17	Y17	Z17	X18	Y18	Z18	X19	Y19	Z19	X20	Y20	Z20	X21	Y21	Z21	X22	Y22	Z22	X23	Y23	Z23	X24	Y24	Z24	X25	Y25	Z25	X26	Y26	Z26	X27	Y27	Z27	X28	Y28	Z28	X29	Y29	Z29	X30	Y30	Z30	X31	Y31	Z31	X32	Y32	Z32	X33	Y33	Z33	X34	Y34	Z34	X35	Y35	Z35	X36	Y36	Z36	X37	Y37	Z37	X38	Y38	Z38	X39	Y39	Z39	X40	Y40	Z40	X41	Y41	Z41	X42	Y42	Z42	X43	Y43	Z43	X44	Y44	Z44	X45	Y45	Z45	X46	Y46	Z46	X47	Y47	Z47	X48	Y48	Z48	X49	Y49	Z49	X50	Y50	Z50	X51	Y51	Z51	

54	0.53000000	255.46846	483.55901	-37.38919	264.91778	381.31427	-53.94466	106.12372	100.11663	-106.31794	42.85723	70.07377	-157.85414	217.03715	41.90103	-59.82490	256.11210	67.88816	-114.80841	548.76478	499.98753	-289.43061	612.53555	445.64125	-279.11601	698.65109	118.88546	-276.16865	654.03424	46.97733	-222.52282	818.92243	108.38845	-312.28328	847.38285	158.79481	-260.20654	227.48565	276.23325	-70.96967	201.73472	396.80916	-15.08637	156.58462	291.59826	-27.58750	533.36567	424.74770	-319.39240	578.75959	311.55033	-325.73488	364.65032	748.15989	15.84583	353.65880	641.31850	-6.37851	292.72920	618.52416	15.74935	251.63559	754.91243	29.29474	243.19562	643.48671	-1.28981	513.56148	750.46632	-285.31199	575.46399	626.93593	-260.80577	435.73731	701.16987	-346.90850	489.22119	582.50998	-313.02197	418.24687	946.27882	-12.66433	228.21702	974.56057	-137.64021	459.76982	937.07202	-265.49530	246.12183	962.81061	-227.48403	297.90733	1427.44128	-218.87621	360.58054	1421.27072	-44.44177	393.96559	1358.67827	-356.17634	416.22986	1354.50691	-170.54020	419.38401	1346.48729	-215.60652	411.48642	1298.68681	16.01518	339.28733	1089.45493	19.61313	358.68443	1109.37464	79.90810	429.28134	1059.13981	95.15226	514.53859	911.84465	69.36650	485.27992	906.30834	110.61696	423.93106	1212.62006	-393.17056	355.75586	1017.25504	-337.38219	368.93746	1024.18994	-415.37003	419.51053	970.32215	-429.14816	479.00885	803.01578	-407.91652	440.67695	801.95907	-441.14615	340.25945	857.31154	-51.77884	376.31398	848.98176	-237.69848	345.93627	878.49465	-54.88141	378.73825	856.96789	-219.48514	
55	0.54000000	263.49737	482.41156	-37.30557	271.32124	379.90425	-53.94764	107.06698	101.45255	-106.14099	43.52729	72.00412	-157.78783	217.11892	41.68674	-59.72209	256.38926	67.48042	-114.54914	561.78516	499.14675	-288.34915	625.22593	443.84528	-278.49956	708.42706	116.67763	-274.63387	664.18851	45.16230	-220.10919	828.18027	105.62754	-312.25822	857.47514	155.96968	-260.88324	231.91796	275.54626	-70.95026	208.43920	396.50156	-14.95195	161.34878	292.18647	-27.42394	545.56854	423.39533	-317.98746	590.11305	310.01204	-324.19376	375.10421	746.07291	16.33642	363.12810	639.38713	-6.20411	302.02056	617.08802	16.05783	262.11095	753.73013	29.66919	252.79217	642.45253	-1.10581	525.64468	749.57734	-285.88224	588.21547	626.50484	-260.84262	447.51608	699.37160	-346.36263	501.68179	581.25281	-312.07579	430.15238	944.38219	-12.22347	240.29002	972.98926	-136.92627	471.81501	935.07211	-265.40404	257.90007	961.09798	-226.57410	311.26069	1425.22242	-222.16990	374.21476	1420.53511	-47.72698	407.17575	1354.37010	-358.71865	429.46055	1352.19229	-173.13380	432.53798	1343.69235	-218.09747	424.31724	1298.12894	13.65802	351.10953	1089.20821	18.65816	370.49429	1109.46368	78.86125	441.03755	1059.06068	94.19271	525.67631	911.31432	68.94008	496.59916	906.15707	110.41233	437.21463	1208.22186	-394.44139	369.28910	1013.09180	-337.84807	382.23778	1019.77461	-415.90913	432.95058	965.83252	-429.42412	492.49405	798.65400	-407.66418	454.06280	797.46145	-440.82151	352.22048	855.51773	-51.23941	387.99678	847.12701	-237.20861	357.88072	876.84862	-54.18131	390.26743	854.97511	-219.07127	
56	0.55000000	271.74645	481.32215	-37.39481	277.87558	378.57900	-54.05765	108.12417	102.97624	-105.91670	44.29755	74.27139	-157.68268	217.24343	41.47518	-59.60741	256.69240	67.06408	-114.24545	574.66272	498.25129	-287.22964	637.77532	441.74689	-277.63827	716.43829	114.16919	-273.01820	672.01797	43.34684	-217.90966	835.66281	101.74683	-311.94414	866.11223	151.48016	-261.09449	236.48976	274.98688	-70.98200	215.28824	396.28506	-14.90250	166.30147	292.92929	-27.31059	557.59515	422.13349	-316.44795	600.68926	308.30964	-322.46216	385.80259	743.97128	16.66706	372.86118	637.34648	-6.37508	311.56841	615.65707	16.23125	272.83546	752.50584	29.98578	262.63341	641.40129	-1.04231	537.73010	748.74168	-286.93717	601.04989	626.16339	-261.33749	459.09621	697.51366	-345.83653	514.09703	580.01758	-311.10292	442.35156	942.45992	-11.98101	252.61099	971.54358	-136.11650	484.05917	933.18465	-265.52933	269.86244	959.51322	-225.54352	324.71782	1423.06794	-225.56473	388.06827	1419.94426	-51.17381	420.37119	1350.22608	-361.40664	442.88534	1350.03043	-175.90756	445.84179	1341.05823	-220.76720	437.26994	1297.72043	11.28371	362.85461	1089.21165	17.66595	382.22298	1109.79208	77.76859	452.65547	1059.12768	93.20226	536.55241	910.85411	68.44892	507.66181	906.11556	110.15525	450.45310	1203.98876	-395.90971	382.82404	1009.15127	-338.29363	395.47567	1015.50344	-416.41784	446.31406	961.50079	-429.71835	505.95835	794.46380	-407.38916	467.39911	793.12591	-440.44514	364.49006	853.74158	-50.81188	399.80742	845.39458	-236.86903	370.08571	875.30071	-53.64134	401.94750	853.07442	-218.83494	
57	0.56000000	280.20680	480.31838	-37.59252	284.57572	377.37481	-54.24490	109.32885	104.71639	-105.62786	45.17919	76.92971	-157.50750	217.42246	41.27648	-59.48168	257.08835	66.66382	-113.90131	587.24191	497.24447	-286.11202	650.08690	439.41728	-276.53740	723.11782	111.59053	-271.33128	677.84798	41.77857	-216.06634	841.79458	96.96231	-311.26681	873.68447	145.57644	-260.66519	241.19501	274.58235	-71.03423	222.26579	396.18752	-14.91234	171.44880	293.86879	-27.22689	569.40029	420.91828	-314.82828	610.61500	306.47286	-320.56508	396.73261	741.88219	16.85161	382.81387	635.23955	-6.83431	321.35586	614.26253	16.27849	283.79911	751.28108	30.23488	272.69913	640.36761	-1.09641	549.79188	747.86224	-288.43171	613.84754	625.75967	-262.28334	470.43486	695.60562	-345.30700	526.34774	578.74716	-310.12530	454.86227	940.51854	-11.92131	265.19232	970.24122	-135.23183	496.52132	931.42029	-265.84042	282.03147	958.07372	-224.43814	338.29652	1420.96401	-229.07760	402.11648	1419.48398	-54.77623	433.56927	1346.25834	-364.25142	456.49219	1348.03110	-178.86281	459.27534	1338.59334	-223.62184	450.35255	1297.45826	8.89802	374.52567	1089.46342	16.66689	393.90721	1110.35720	76.64997	464.16819	1059.33779	92.19208	547.18316	910.44926	67.89648	518.49368	906.17784	109.84865	463.63951	1199.90860	-397.58708	396.34317	1005.41616	-338.73241	408.64240	1011.36491	-416.90720	459.58309	957.31567	-430.04095	519.38790	790.43854	-407.08659	480.68119	788.93635	-440.01360	377.06448	851.99587	-50.50140	411.77065	843.79655	-236.67832	382.56193	873.86275	-53.25181	413.79588	851.28543	-218.75554	
58	0.57000000	288.88585	479.42362	-37.82921	291.44606	376.32159	-54.47340	110.72369	106.70624	-105.25961	46.19734	80.03386	-157.23678	217.66187	41.10244	-59.34450	257.63964	66.29350	-113.52201	599.41450	496.12588	-285.03496	662.09500	436.97823	-275.23286	728.95210	109.14023	-269.61017	682.08934	40.65819	-214.70503	847.01780	91.47340	-310.19217	880.57170	138.52914	-259.51153	246.04607	274.35563	-71.07948	229.39717	396.24034	-14.95649	176.80816	295.05542	-27.15021	580.96272	419.73791	-313.19154	620.07305	304.58659	-318.55588	407.88411	739.84044	16.91055	392.94572	633.14284	-7.45970	331.37253	612.93522	16.21253	294.99558	750.10520	30.40353	282.97906	639.38923	-1.25846	561.81193	746.87415	-290.30360	626.48276	625.17268	-263.64015	481.50152	693.69270	-344.75328	538.30106	577.41636	-309.17021	467.69774	938.57782	-12.00832	278.03853	969.10266	-134.28980	509.20505	929.79682	-266.29421	294.42306	956.81462	-223.31137	352.01125	1418.90272	-232.71919	416.33805	1419.13625	-58.52573	446.78168	1342.46738	-367.26127	470.26646	1346.20101	-181.99885	472.82665	1336.30391	-226.66629	463.56514	1297.33897	6.50063	386.12932	1089.95334	15.68288	405.59078	1111.14711	75.52125	475.61937	1059.68197	91.16575	557.58155	910.07532	67.28509	529.12220	906.33297	109.49702	476.77356	1195.96832	-399.47321	409.83994	1001.86328	-339.17838	421.73388	1007.34694	-417.39288	472.75316	953.26242	-430.40099	532.77444	786.57006	-406.75148	493.90923	784.87552	-439.52479	389.92762	850.30489	-50.30496	423.90408	842.35450	-236.62571	395.31870	872.52920	-52.99247	425.82959	849.63974	-218.80998	
59	0.58000000	297.81252	478.65276	-38.05727	298.54585	375.43777	-54.71189	112.35984	108.98129	-104.80444	47.39849	83.63534	-156.85861	217.96480	40.96680	-59.19438	258.38660	65.94721	-113.11370	611.12615	494.95112	-284.04206	673.77436	434.58468	-273.79116	734.38976	106.94154	-267.92238	685.20148	40.10924	-213.89473	851.70955	85.46459	-308.75657	887.06728	130.61352	-257.68323	251.08215	274.32460	-71.10374	236.76028	396.47368	-15.01827	182.41451	296.54036	-27.06253	592.29213	418.62226	-311.60893	629.27377	302.77641	-316.52893	419.25627	737.88500	16.86693	403.24560	631.14474	-8.10450	341.62600	611.70188	16.05039	306.42936	749.02460	30.47918	293.48402	638.49795	-1.51280	573.78224	745.76163	-292.46621	638.83918	624.33599	-265.32684	492.29052	691.86319	-344.16440	549.82919	576.04821	-308.27265	480.85999	936.66926	-12.19224	291.14582	968.15038	-133.30596	522.10210	928.33640	-266.84169	307.04774	955.78626	-222.21740	365.86214	1416.89176	-236.48926	430.72013	1418.88273	-62.41272	460.01478	1338.84455	-370.43799	484.18949	1344.54318	-185.31196	486.49008	1334.19206	-229.90324	476.90058	1297.36071	4.08580	397.68398	1090.66518	14.72617	417.32254	1112.14549	74.39389	487.05950	1060.14913	90.11962	567.75245	909.70639	66.61539	539.57309	906.56549	109.10480	489.85824	1192.15671	-401.55624	423.31573	998.47192	-339.64446	434.75323	1003.44066	-417.89105	485.83105	949.32928	-430.80713	546.11627	782.85245	-406.38039	507.09241	780.93471	-438.97733	403.05083	848.70272	-50.21314	436.21716	841.09743	-236.69324	408.35879	871.27807	-52.83999	438.06620	848.17692	-218.97948	
60	0.59000000	307.04147	478.00877	-38.26067	305.96539	374.72818	-54.93684	114.29421	111.57736	-104.26375	48.85207	87.78024	-156.37760	218.33744	40.88455	-59.02940	259.34327	65.60113	-112.68305	622.38409	493.81548	-283.18529	685.14410	432.38660	-272.30432	739.74493	105.02425	-266.35166	687.63608	40.19019	-213.59744	856.10876	79.11835	-307.08005	893.32090	122.11885	-255.37243	256.37046	274.50175	-71.10618	244.47573	396.90982	-15.08993	188.32226	298.36327	-26.95508	603.42861	417.63692	-310.16028	638.40963	301.17861	-314.62046	430.86390	736.05757	16.74187	413.74858	629.32003	-8.64970	352.15132	610.58385	15.81498	318.11913	748.07270	30.45465	304.25348	637.71203	-1.83806	585.70991	744.56468	-294.80378	650.83063	623.25029	-267.21971	502.83668	690.23899	-343.54965	560.84860	574.71512	-307.47388	494.33601	934.83265	-12.42061	304.50400	967.40711	-132.29533	535.19575	927.06064	-267.43239	319.91096	955.04826	-221.20310	379.82794	1414.95841	-240.37320	445.25804	1418.70831	-66.42744	473.27184	1335.37855	-373.77418	498.23947	1343.05687	-188.79512	500.26203	1332.25552	-233.33061	490.34866	1297.52440	1.64295	409.22279	1091.58180	13.79924	429.15206	1113.33788	73.27553	498.53934	1060.73049	89.04376	577.68865	909.32271	65.88531	549.86907	906.85831	108.67418	502.89659	1188.46694	-403.81601	436.77190	995.23110	-340.14265	447.70916	999.64534	-418.41606	498.82882	945.51213	-431.26706	559.41602	779.28478	-405.97262	520.25093	777.12011	-438.37056	416.39491	847.22972	-50.21167	448.71033	840.05714	-236.85806	421.67665	870.07631	-52.77464	450.52139	846.94015	-219.25131	
